PathFileType  4	(X/Y/Z) C:\Users\antoi\Documents\MyRepositories\mobilecap\ResultsAnalysis
DataRate	CameraRate	NumFrames	NumMarkers	Units	OrigDataRate	OrigDataStartFrame	OrigNumFrames
100.0	100.0	6	51	mm	100.0	493	1312
Frame#	Time	r_knee			r_shank_antsup			r_ankle			r_calc			r_5meta			r_toe			L_knee			L_shank_antsup			L_ankle			L_calc			L_5meta			L_toe			r_sh2			r_sh3			r_sh4			L_sh2			L_sh3			r_thigh1			r_thigh2			r_thigh3			r_thigh4			r_thigh5			L_thigh1			L_thigh2			L_thigh3			L_thigh4			r.ASIS			r.PSIS			L.ASIS			L.PSIS			C7			R_Shoulder			L_Shoulder			R_Sternum			L_Sternum			R_humerus			R_elbow_med			R_elbow_lat			R_forearm			R_wrist_radius			R_wrist_ulna			L_humerus			L_elbow_med			L_elbow_lat			L_forearm			L_wrist_radius			L_wrist_ulna			R_HJC			L_HJC			R_HJC_reg			L_HJC_reg			
		X1	Y1	Z1	X2	Y2	Z2	X3	Y3	Z3	X4	Y4	Z4	X5	Y5	Z5	X6	Y6	Z6	X7	Y7	Z7	X8	Y8	Z8	X9	Y9	Z9	X10	Y10	Z10	X11	Y11	Z11	X12	Y12	Z12	X13	Y13	Z13	X14	Y14	Z14	X15	Y15	Z15	X16	Y16	Z16	X17	Y17	Z17	X18	Y18	Z18	X19	Y19	Z19	X20	Y20	Z20	X21	Y21	Z21	X22	Y22	Z22	X23	Y23	Z23	X24	Y24	Z24	X25	Y25	Z25	X26	Y26	Z26	X27	Y27	Z27	X28	Y28	Z28	X29	Y29	Z29	X30	Y30	Z30	X31	Y31	Z31	X32	Y32	Z32	X33	Y33	Z33	X34	Y34	Z34	X35	Y35	Z35	X36	Y36	Z36	X37	Y37	Z37	X38	Y38	Z38	X39	Y39	Z39	X40	Y40	Z40	X41	Y41	Z41	X42	Y42	Z42	X43	Y43	Z43	X44	Y44	Z44	X45	Y45	Z45	X46	Y46	Z46	X47	Y47	Z47	X48	Y48	Z48	X49	Y49	Z49	X50	Y50	Z50	X51	Y51	Z51	

493	4.92000000	-261.41069	544.96531	-422.27460	-240.47621	470.61270	-396.97001	-294.74029	106.73898	-383.49892	-347.58947	54.72240	-432.45729	-162.70819	38.71259	-317.33502	-118.45937	61.26808	-371.24693	-267.68823	544.76372	-837.82506	-242.87327	435.52005	-875.20820	-283.52787	101.22566	-894.15777	-341.51765	52.49642	-849.24141	-137.36857	32.67885	-957.97444	-102.80600	59.52060	-898.03097	-242.84509	358.63463	-378.07873	-314.37327	473.11627	-387.11871	-324.56639	357.42187	-377.26414	-332.28411	442.93161	-865.26940	-330.53125	323.21736	-884.55087	-182.71104	864.69923	-419.31527	-175.66514	751.76985	-421.67197	-229.59617	723.81123	-395.08562	-296.14963	850.65027	-425.71884	-282.03883	735.03222	-412.48832	-193.17420	866.38719	-823.75309	-189.61749	727.40391	-842.59451	-311.84529	857.96633	-814.24092	-298.28629	720.17756	-833.78278	-138.97417	1043.60625	-491.42734	-321.51498	1112.47355	-570.50826	-146.86515	1033.76123	-755.81888	-323.87653	1109.50722	-673.72194	-288.49309	1601.74255	-633.00893	-228.28919	1570.45657	-458.91851	-225.80298	1578.12965	-793.78449	-133.02200	1548.41893	-600.97940	-131.24368	1545.03177	-655.31024	-252.71137	1302.16334	-366.77225	-299.31462	1214.89418	-437.13784	-279.59089	1218.47011	-356.57990	-222.22944	1069.06186	-337.95522	-186.64171	959.42293	-345.16917	-228.87333	959.47697	-330.31505	-252.77591	1318.24919	-879.52425	-301.78059	1234.00372	-814.25739	-283.27239	1233.61456	-881.51563	-226.84817	1070.74295	-900.19095	-187.01698	979.18087	-892.20062	-225.10084	970.44686	-898.91350	-235.27648	980.24659	-496.62219	-239.06511	971.75470	-726.80252	-226.28840	978.10033	-525.26238	-230.28255	973.08308	-699.84157	
494	4.93000000	-260.10484	544.73339	-422.47283	-239.21928	470.00449	-397.34963	-294.99366	106.49097	-383.36770	-347.79557	54.42261	-432.38461	-162.65365	38.92105	-317.63361	-118.48472	61.63146	-371.46515	-266.48774	544.54793	-838.18563	-241.67409	435.37128	-875.52783	-283.43270	101.20891	-894.21106	-341.42220	52.58983	-849.30212	-137.35397	32.63692	-958.01122	-102.80721	59.35217	-898.03236	-241.81691	358.14508	-378.74896	-312.64352	472.78569	-386.87298	-323.45756	357.23291	-376.81120	-331.11715	442.97830	-866.03599	-329.52553	323.13872	-885.53078	-183.25538	864.38257	-419.55699	-175.76069	751.61695	-421.92386	-229.77249	723.41093	-395.57691	-296.76495	850.25162	-425.98270	-282.24667	734.50683	-412.78482	-192.72328	866.43933	-824.04343	-188.57245	727.56389	-843.10468	-311.59402	857.62936	-814.93456	-297.41623	719.96194	-834.62117	-140.08283	1043.41805	-491.35541	-322.33104	1112.39813	-570.88760	-147.31174	1033.61869	-755.66716	-324.42939	1109.51008	-674.05999	-287.70780	1601.77610	-632.97344	-227.48355	1570.27428	-458.93501	-224.97638	1578.01342	-793.78856	-132.43495	1547.99816	-601.01592	-130.64113	1544.68738	-655.41151	-252.56170	1302.25113	-366.59427	-299.31748	1214.85645	-436.69571	-279.65347	1218.55556	-356.29322	-222.21009	1069.08482	-337.87701	-186.61797	959.46439	-345.25967	-228.75817	959.61816	-330.10116	-252.53826	1318.31988	-879.82303	-301.74282	1233.92695	-814.64477	-283.24831	1233.73938	-882.00514	-226.21876	1071.02206	-900.86423	-186.07339	979.59929	-892.76641	-224.14165	970.63492	-899.29908	-236.41229	980.12461	-496.77018	-239.60900	971.67807	-726.96095	-227.32330	977.92250	-525.44224	-230.87287	973.03711	-699.96847	
495	4.94000000	-258.68893	544.33081	-422.72581	-237.93659	469.40553	-397.71585	-295.29659	106.21039	-383.22112	-347.99507	54.06879	-432.35686	-162.67161	39.13192	-318.03596	-118.52099	62.09728	-371.78829	-265.32148	544.52719	-838.65519	-240.58874	435.09852	-875.57511	-283.34935	101.20039	-894.28449	-341.32740	52.72881	-849.34447	-137.33681	32.61139	-958.04585	-102.79622	59.13148	-897.95787	-240.69609	357.51951	-379.46625	-311.29976	472.44335	-386.99456	-322.42097	356.98573	-376.49786	-330.01852	443.09896	-866.67131	-328.62074	322.98259	-886.12153	-183.66481	864.12448	-419.85088	-175.67852	751.54180	-422.29802	-229.56521	723.04352	-395.92354	-297.27038	849.66474	-426.00960	-282.20011	733.76798	-413.09454	-192.37986	866.41344	-823.61932	-187.68716	727.71566	-843.37548	-311.21527	857.29633	-815.02282	-296.52550	719.78344	-835.34917	-141.28833	1043.07994	-491.29535	-323.24131	1112.18805	-571.22218	-147.71588	1033.41309	-755.36738	-325.00952	1109.48157	-674.34429	-286.92838	1601.79956	-632.96390	-226.63649	1570.10168	-458.80007	-224.14347	1577.76431	-793.66524	-131.82795	1547.53031	-601.05470	-129.99226	1544.23283	-655.29673	-252.43188	1302.18416	-366.28660	-299.29746	1214.65071	-436.34466	-279.62726	1218.53432	-355.93049	-222.21471	1069.05251	-337.77733	-186.67395	959.40158	-345.28519	-228.67142	959.62246	-329.83751	-252.28797	1318.29218	-880.10096	-301.76519	1233.81392	-815.21014	-283.20061	1233.75707	-882.54056	-225.61979	1071.09683	-901.26468	-185.15410	979.89592	-893.26770	-223.12395	970.68753	-899.80010	-237.64973	979.85230	-496.90389	-240.15708	971.55303	-727.10865	-228.41357	977.55304	-525.72509	-231.40374	972.97644	-700.09528	
496	4.95000000	-257.19449	543.94144	-423.02868	-236.64735	468.84286	-397.97082	-295.65380	105.88727	-383.22909	-348.22157	53.67787	-432.40325	-162.78307	39.21854	-318.78187	-118.60272	62.61368	-372.20313	-264.23942	544.64443	-839.19238	-239.52472	434.81912	-875.64949	-283.24399	101.20294	-894.42117	-341.28593	52.80286	-849.32984	-137.31846	32.60614	-958.06844	-102.77572	58.93638	-897.86320	-239.68324	356.93457	-379.87487	-310.96614	472.51661	-387.03544	-321.41347	356.75254	-376.36764	-328.97683	443.17909	-867.11020	-327.84587	323.04035	-886.32010	-183.89415	864.05897	-420.28876	-175.46973	751.45441	-422.93144	-229.02828	722.71802	-396.22947	-297.59650	848.97158	-425.85423	-281.85284	733.09762	-413.25207	-192.13494	866.40765	-822.97543	-186.98221	727.87287	-843.30986	-310.85694	857.10560	-815.10527	-295.75965	719.70953	-835.87492	-142.53555	1042.66719	-491.17450	-324.19584	1111.93171	-571.50314	-148.11993	1033.21785	-754.98067	-325.60324	1109.40611	-674.56823	-286.15787	1601.78001	-632.86598	-225.76353	1569.92567	-458.50700	-223.28896	1577.45187	-793.51568	-131.20502	1547.03949	-600.95541	-129.34744	1543.71639	-655.04255	-252.30042	1302.03083	-365.79443	-299.41393	1214.41261	-435.89202	-279.64860	1218.41848	-355.29706	-222.24193	1068.91220	-337.66218	-186.81037	959.18227	-345.29996	-228.64113	959.49741	-329.61143	-252.02758	1318.22762	-880.39765	-301.79684	1233.65204	-815.84755	-283.16008	1233.64474	-883.01189	-225.06072	1071.00639	-901.44724	-184.30115	980.05820	-893.67477	-222.14640	970.67201	-900.27782	-238.92750	979.50603	-497.00021	-240.70093	971.41653	-727.21947	-229.55489	977.16683	-525.96973	-231.93356	972.89814	-700.16392	
497	4.96000000	-255.69813	543.55633	-423.43156	-235.33948	468.36054	-398.06819	-295.96271	105.62318	-383.35653	-348.51387	53.28484	-432.53406	-162.82118	39.45432	-319.63939	-118.69424	63.16366	-372.73538	-263.22147	544.72451	-839.64845	-238.51595	434.68025	-875.91332	-283.13461	101.21193	-894.56039	-341.27548	52.82060	-849.30971	-137.30572	32.59955	-958.08823	-102.75790	58.82626	-897.82886	-238.92288	356.40819	-380.00410	-311.16966	472.86887	-386.93800	-320.48918	356.52341	-376.37185	-328.03843	443.13493	-867.37460	-327.06160	323.34233	-886.60577	-184.00711	864.06469	-420.84413	-175.05410	751.42285	-423.57142	-228.33601	722.43778	-396.65789	-297.78601	848.39507	-425.61964	-281.26988	732.64000	-413.22052	-191.91335	866.54930	-822.80578	-186.35172	728.08400	-843.08679	-310.59057	857.14267	-815.65553	-295.15152	719.73536	-836.17972	-143.81135	1042.24262	-490.86641	-325.21828	1111.68038	-571.69207	-148.54762	1033.12158	-754.66139	-326.23402	1109.31893	-674.73230	-285.35521	1601.75353	-632.62129	-224.92364	1569.60443	-458.20544	-222.35712	1577.11645	-793.41602	-130.59036	1546.52052	-600.70583	-128.71179	1543.20031	-654.72134	-252.12940	1301.88574	-365.22232	-299.97223	1214.45809	-435.23106	-279.78633	1218.26374	-354.35583	-222.26572	1068.62757	-337.50857	-186.99903	958.82319	-345.34504	-228.67104	959.23687	-329.45876	-251.77972	1318.10172	-880.58474	-301.81323	1233.39095	-816.26242	-283.15982	1233.43955	-883.34662	-224.52944	1070.90377	-901.68913	-183.55062	980.14525	-894.09505	-221.32160	970.66928	-900.72771	-240.22545	979.13128	-497.06695	-241.24776	971.33825	-727.30066	-230.77954	976.77341	-526.08643	-232.49626	972.78157	-700.26893	
498	4.97000000	-254.22201	543.27423	-423.77170	-234.05635	467.93979	-398.18661	-296.16861	105.48765	-383.44208	-348.85916	52.91929	-432.65854	-162.64202	40.20472	-320.17025	-118.74455	63.75408	-373.45086	-262.24347	544.66503	-839.79799	-237.61147	434.69119	-876.22053	-283.05158	101.26672	-894.69484	-341.25370	52.85974	-849.33076	-137.30285	32.58266	-958.10963	-102.74599	58.76194	-897.84459	-238.29941	355.88177	-380.13947	-310.76589	472.93215	-387.16985	-319.79131	356.35482	-376.50927	-327.16465	443.08510	-867.57296	-326.27506	323.58007	-887.00633	-184.31897	864.09387	-421.27340	-174.61991	751.65391	-423.90223	-227.62183	722.34931	-397.07385	-297.96781	848.05139	-425.36589	-280.63783	732.37277	-413.17912	-191.79439	866.78421	-823.16045	-185.79921	728.29932	-842.81151	-310.43895	857.21490	-816.21414	-294.62790	719.74595	-836.28130	-145.03776	1041.84970	-490.47905	-326.25616	1111.43257	-571.75677	-148.96089	1033.16110	-754.47801	-326.90011	1109.27326	-674.84600	-284.53083	1601.83366	-632.33604	-224.17344	1569.18561	-457.94870	-221.37835	1576.76529	-793.21236	-129.97850	1545.99683	-600.36176	-128.06512	1542.70353	-654.28892	-251.92688	1301.73266	-364.76770	-300.72607	1214.59547	-434.46156	-279.88653	1218.13842	-353.38591	-222.28817	1068.30333	-337.19888	-187.20367	958.45362	-345.30324	-228.82390	958.81525	-329.26777	-251.56317	1317.89991	-880.57438	-301.84286	1233.02508	-816.38216	-283.18173	1233.20829	-883.51499	-224.09234	1070.84631	-902.06562	-182.89254	980.23098	-894.59833	-220.64405	970.70157	-901.24881	-241.44528	978.74748	-497.15037	-241.77726	971.36150	-727.39952	-231.95865	976.33933	-526.16757	-233.04751	972.68814	-700.47876	
